<svg width="91" height="50" viewBox="0 0 91 50" fill="none" xmlns="http://www.w3.org/2000/svg">
<path fillRule="evenodd" clipRule="evenodd" d="M17.5833 2.5612C20.0333 1.14669 24.0056 1.14669 26.4556 2.56121L39.6027 10.1517C42.0527 11.5662 42.0527 13.8596 39.6027 15.2741L26.4556 22.8646C24.0056 24.2792 20.0333 24.2791 17.5833 22.8646L4.43615 15.2741C1.98613 13.8596 1.98614 11.5662 4.43615 10.1517L17.5833 2.5612ZM24.484 3.69952C23.1228 2.91368 20.916 2.91368 19.5549 3.69952L6.40777 11.29C5.04665 12.0759 5.04665 13.35 6.40777 14.1358L19.5549 21.7263C20.916 22.5122 23.1228 22.5122 24.484 21.7263L37.6311 14.1358C38.9922 13.35 38.9922 12.0759 37.6311 11.29L24.484 3.69952Z" fill="#F3F3F3"/>
<path fillRule="evenodd" clipRule="evenodd" d="M0.507656 16.9836C0.507656 14.1546 2.49379 13.0079 4.9438 14.4224L18.0909 22.0129C20.541 23.4274 22.5271 26.8675 22.5271 29.6965L22.5271 44.8776C22.5271 47.7066 20.5409 48.8533 18.0909 47.4388L4.94379 39.8483C2.49378 38.4337 0.507656 34.9937 0.507656 32.1646L0.507656 16.9836ZM4.9438 16.699C3.58268 15.9132 2.47927 16.5502 2.47927 18.1219L2.47927 33.3029C2.47927 34.8746 3.58267 36.7858 4.94379 37.5716L18.0909 45.1621C19.4521 45.948 20.5555 45.3109 20.5555 43.7392L20.5555 28.5582C20.5555 26.9865 19.4521 25.0754 18.0909 24.2896L4.9438 16.699Z" fill="#F3F3F3"/>
<path fillRule="evenodd" clipRule="evenodd" d="M21.5747 29.3762C21.5747 26.5472 23.5608 23.1071 26.0108 21.6926L39.1591 14.1014C41.6091 12.6869 43.5952 13.8336 43.5952 16.6626L43.5952 31.8449C43.5952 34.674 41.6091 38.114 39.1591 39.5285L26.0108 47.1197C23.5608 48.5342 21.5747 47.3875 21.5747 44.5585L21.5747 29.3762ZM26.0108 23.9692C24.6497 24.755 23.5463 26.6662 23.5463 28.2379L23.5463 43.4202C23.5463 44.9919 24.6497 45.6289 26.0108 44.8431L39.1591 37.2519C40.5202 36.4661 41.6236 34.5549 41.6236 32.9832L41.6236 17.801C41.6236 16.2293 40.5202 15.5922 39.1591 16.3781L26.0108 23.9692Z" fill="#F3F3F3"/>
<path fillRule="evenodd" clipRule="evenodd" d="M18.6365 1.31744C20.7497 0.0973942 23.3532 0.0973946 25.4664 1.31744L40.4768 9.98371C42.59 11.2037 43.8918 13.4585 43.8918 15.8986V33.2311C43.8918 35.6712 42.59 37.9259 40.4768 39.146L25.4664 47.8122C23.3532 49.0323 20.7497 49.0323 18.6365 47.8122L3.62611 39.146C1.51294 37.9259 0.21117 35.6712 0.21117 33.2311V15.8986C0.21117 13.4585 1.51294 11.2037 3.62611 9.98371L18.6365 1.31744ZM24.3281 3.28905C22.9193 2.47569 21.1836 2.47569 19.7748 3.28905L4.76443 11.9553C3.35564 12.7687 2.4878 14.2718 2.4878 15.8986V33.2311C2.4878 34.8578 3.35564 36.361 4.76443 37.1743L19.7748 45.8406C21.1836 46.654 22.9193 46.654 24.3281 45.8406L39.3385 37.1743C40.7473 36.361 41.6151 34.8578 41.6151 33.2311V15.8986C41.6151 14.2718 40.7473 12.7687 39.3385 11.9553L24.3281 3.28905Z" fill="#F3F3F3"/>
<path d="M21.8124 23.3696L18.9439 22.6525L20.6172 25.7601L22.2905 28.1505L24.2029 24.0867L24.92 22.6525L21.8124 23.3696Z" fill="#F3F3F3"/>
<path d="M3.88398 14.0468L2.92779 12.6125L1.25447 13.3297L1.97161 15.003L3.88398 14.0468Z" fill="#F3F3F3"/>
<path d="M25.2821 8.62869C24.2658 9.21545 22.618 9.21545 21.6017 8.62869C20.5854 8.04193 20.5854 7.0906 21.6017 6.50383C22.618 5.91707 24.2658 5.91707 25.2821 6.50383C26.2984 7.0906 26.2984 8.04192 25.2821 8.62869Z" fill="#F3F3F3"/>
<path d="M20.1297 11.6033C19.1134 12.1901 17.4656 12.1901 16.4493 11.6033C15.433 11.0165 15.433 10.0652 16.4493 9.47844C17.4656 8.89168 19.1134 8.89168 20.1297 9.47844C21.146 10.0652 21.146 11.0165 20.1297 11.6033Z" fill="#F3F3F3"/>
<path d="M14.9771 14.578C13.9608 15.1648 12.3131 15.1648 11.2968 14.578C10.2805 13.9913 10.2805 13.0399 11.2968 12.4532C12.3131 11.8664 13.9608 11.8664 14.9771 12.4532C15.9934 13.0399 15.9934 13.9913 14.9771 14.578Z" fill="#F3F3F3"/>
<path d="M31.5388 12.2407C30.5225 12.8275 28.8748 12.8275 27.8585 12.2407C26.8422 11.654 26.8422 10.7027 27.8585 10.1159C28.8748 9.52913 30.5225 9.52913 31.5388 10.1159C32.5551 10.7027 32.5551 11.654 31.5388 12.2407Z" fill="#F3F3F3"/>
<path d="M26.3863 15.2156C25.37 15.8024 23.7222 15.8024 22.7059 15.2156C21.6896 14.6288 21.6896 13.6775 22.7059 13.0907C23.7222 12.504 25.37 12.504 26.3863 13.0907C27.4026 13.6775 27.4026 14.6288 26.3863 15.2156Z" fill="#F3F3F3"/>
<path d="M21.2337 18.1903C20.2174 18.7771 18.5697 18.7771 17.5534 18.1903C16.5371 17.6036 16.5371 16.6522 17.5534 16.0655C18.5697 15.4787 20.2174 15.4787 21.2337 16.0655C22.25 16.6522 22.25 17.6036 21.2337 18.1903Z" fill="#F3F3F3"/>
<path d="M9.47708 23.5557C9.47708 24.7293 8.65321 25.2049 7.63691 24.6182C6.62061 24.0314 5.79673 22.6044 5.79673 21.4309C5.79673 20.2574 6.62061 19.7817 7.63691 20.3685C8.65321 20.9552 9.47708 22.3822 9.47708 23.5557Z" fill="#F3F3F3"/>
<path d="M9.4766 29.5051C9.4766 30.6786 8.65273 31.1543 7.63643 30.5675C6.62012 29.9807 5.79625 28.5537 5.79625 27.3802C5.79625 26.2067 6.62012 25.731 7.63643 26.3178C8.65273 26.9046 9.4766 28.3316 9.4766 29.5051Z" fill="#F3F3F3"/>
<path d="M9.4766 35.4547C9.4766 36.6282 8.65273 37.1039 7.63643 36.5171C6.62012 35.9303 5.79625 34.5033 5.79625 33.3298C5.79625 32.1563 6.62012 31.6806 7.63643 32.2674C8.65273 32.8541 9.4766 34.2811 9.4766 35.4547Z" fill="#F3F3F3"/>
<path d="M15.7332 27.1678C15.7332 28.3413 14.9093 28.817 13.893 28.2302C12.8767 27.6435 12.0528 26.2165 12.0528 25.0429C12.0528 23.8694 12.8767 23.3938 13.893 23.9805C14.9093 24.5673 15.7332 25.9943 15.7332 27.1678Z" fill="#F3F3F3"/>
<path d="M15.7332 33.1174C15.7332 34.2909 14.9093 34.7666 13.893 34.1798C12.8767 33.593 12.0528 32.1661 12.0528 30.9925C12.0528 29.819 12.8767 29.3433 13.893 29.9301C14.9093 30.5169 15.7332 31.9439 15.7332 33.1174Z" fill="#F3F3F3"/>
<path d="M15.7332 39.067C15.7332 40.2405 14.9093 40.7162 13.893 40.1294C12.8767 39.5426 12.0528 38.1156 12.0528 36.9421C12.0528 35.7686 12.8767 35.2929 13.893 35.8797C14.9093 36.4664 15.7332 37.8934 15.7332 39.067Z" fill="#F3F3F3"/>
<path d="M31.4694 25.2827C31.4694 26.4562 30.6455 27.8832 29.6292 28.47C28.6129 29.0568 27.789 28.5811 27.789 27.4076C27.789 26.234 28.6129 24.8071 29.6292 24.2203C30.6455 23.6335 31.4694 24.1092 31.4694 25.2827Z" fill="#F3F3F3"/>
<path d="M31.4688 31.2316C31.4688 32.4051 30.6449 33.8321 29.6286 34.4188C28.6123 35.0056 27.7884 34.5299 27.7884 33.3564C27.7884 32.1829 28.6123 30.7559 29.6286 30.1691C30.6449 29.5824 31.4688 30.058 31.4688 31.2316Z" fill="#F3F3F3"/>
<path d="M31.4688 37.1812C31.4688 38.3547 30.6449 39.7817 29.6286 40.3684C28.6123 40.9552 27.7884 40.4795 27.7884 39.306C27.7884 38.1325 28.6123 36.7055 29.6286 36.1187C30.6449 35.532 31.4688 36.0076 31.4688 37.1812Z" fill="#F3F3F3"/>
<path d="M37.7254 21.6698C37.7254 22.8433 36.9015 24.2703 35.8852 24.8571C34.8689 25.4438 34.045 24.9682 34.045 23.7947C34.045 22.6211 34.8689 21.1941 35.8852 20.6074C36.9015 20.0206 37.7254 20.4963 37.7254 21.6698Z" fill="#F3F3F3"/>
<path d="M37.7254 27.6194C37.7254 28.7929 36.9015 30.2199 35.8852 30.8067C34.8689 31.3934 34.045 30.9178 34.045 29.7442C34.045 28.5707 34.8689 27.1437 35.8852 26.557C36.9015 25.9702 37.7254 26.4459 37.7254 27.6194Z" fill="#F3F3F3"/>
<path d="M37.7254 33.569C37.7254 34.7425 36.9015 36.1695 35.8852 36.7563C34.8689 37.343 34.045 36.8673 34.045 35.6938C34.045 34.5203 34.8689 33.0933 35.8852 32.5065C36.9015 31.9198 37.7254 32.3954 37.7254 33.569Z" fill="#F3F3F3"/>
<path d="M52.2298 7.70361V14.6035C52.2298 15.1731 52.3428 15.579 52.5687 15.8211C52.7947 16.049 53.1867 16.1629 53.745 16.1629H55.0808V17.8077H53.4459C52.4358 17.8077 51.6782 17.5585 51.1731 17.0601C50.6681 16.5616 50.4155 15.7428 50.4155 14.6035V7.70361H49V6.10147H50.4155V3.15354H52.2298V6.10147H55.0808V7.70361H52.2298Z" fill="#F3F3F3"/>
<path d="M62.7018 5.88785C63.5258 5.88785 64.2702 6.08011 64.9347 6.46462C65.5993 6.83489 66.1176 7.39742 66.4898 8.1522C66.8752 8.90699 67.068 9.82554 67.068 10.9079V17.8077H65.2736V11.1856C65.2736 10.0178 65.0012 9.12773 64.4562 8.51535C63.9113 7.88874 63.167 7.57543 62.2233 7.57543C61.2663 7.57543 60.5021 7.89586 59.9306 8.53672C59.3723 9.17757 59.0932 10.1104 59.0932 11.3351V17.8077H57.279V2H59.0932V7.76769C59.4521 7.16956 59.9438 6.70672 60.5685 6.37917C61.2065 6.05162 61.9176 5.88785 62.7018 5.88785Z" fill="#F3F3F3"/>
<path d="M80 11.506C80 11.8763 79.9801 12.2679 79.9402 12.6809H71.2078C71.2743 13.8344 71.6398 14.7388 72.3044 15.3939C72.9822 16.0347 73.7996 16.3551 74.7566 16.3551C75.5408 16.3551 76.1921 16.1629 76.7104 15.7784C77.2421 15.3796 77.6142 14.8527 77.8269 14.1976H79.7807C79.4883 15.3227 78.9035 16.2412 78.0262 16.9533C77.149 17.6511 76.0591 18 74.7566 18C73.7199 18 72.7895 17.7508 71.9654 17.2523C71.1547 16.7539 70.5167 16.049 70.0515 15.1375C69.5863 14.2118 69.3537 13.1437 69.3537 11.9332C69.3537 10.7227 69.5797 9.66177 70.0316 8.75033C70.4835 7.8389 71.1148 7.14108 71.9256 6.65688C72.7496 6.15843 73.6933 5.90921 74.7566 5.90921C75.7933 5.90921 76.7104 6.15131 77.5079 6.63551C78.3054 7.11972 78.9168 7.78905 79.3421 8.64352C79.7807 9.48376 80 10.4379 80 11.506ZM78.1259 11.1001C78.1259 10.3596 77.9731 9.72586 77.6674 9.19893C77.3617 8.65777 76.943 8.25189 76.4114 7.98131C75.893 7.69648 75.3148 7.55407 74.6768 7.55407C73.7598 7.55407 72.9756 7.86738 72.3243 8.49399C71.6863 9.1206 71.3208 9.98932 71.2278 11.1001H78.1259Z" fill="#F3F3F3"/>
<path d="M49 43.4481C49 42.3571 49.2307 41.4026 49.6921 40.5844C50.1535 39.7532 50.7845 39.1104 51.5852 38.6558C52.3994 38.2013 53.3086 37.974 54.3129 37.974C55.1814 37.974 55.9888 38.1688 56.7352 38.5584C57.4816 38.9351 58.0515 39.4351 58.4451 40.0584V34.4091H60.3178V48.8247H58.4451V46.8182C58.0787 47.4545 57.5359 47.9805 56.8166 48.3961C56.0974 48.7987 55.256 49 54.2925 49C53.3019 49 52.3994 48.7662 51.5852 48.2987C50.7845 47.8312 50.1535 47.1753 49.6921 46.3312C49.2307 45.487 49 44.526 49 43.4481ZM58.4451 43.4675C58.4451 42.6623 58.2754 41.961 57.9362 41.3636C57.5969 40.7662 57.1355 40.3117 56.552 40C55.982 39.6753 55.351 39.513 54.6589 39.513C53.9668 39.513 53.3358 39.6688 52.7658 39.9805C52.1959 40.2922 51.7412 40.7468 51.402 41.3442C51.0627 41.9416 50.8931 42.6429 50.8931 43.4481C50.8931 44.2662 51.0627 44.9805 51.402 45.5909C51.7412 46.1883 52.1959 46.6494 52.7658 46.974C53.3358 47.2857 53.9668 47.4416 54.6589 47.4416C55.351 47.4416 55.982 47.2857 56.552 46.974C57.1355 46.6494 57.5969 46.1883 57.9362 45.5909C58.2754 44.9805 58.4451 44.2727 58.4451 43.4675Z" fill="#F3F3F3"/>
<path d="M64.4049 36.4156C64.052 36.4156 63.7535 36.2987 63.5092 36.0649C63.2649 35.8312 63.1428 35.5455 63.1428 35.2078C63.1428 34.8701 63.2649 34.5844 63.5092 34.3506C63.7535 34.1169 64.052 34 64.4049 34C64.7441 34 65.0291 34.1169 65.2598 34.3506C65.5041 34.5844 65.6262 34.8701 65.6262 35.2078C65.6262 35.5455 65.5041 35.8312 65.2598 36.0649C65.0291 36.2987 64.7441 36.4156 64.4049 36.4156ZM65.3005 38.1494V48.8247H63.4481V38.1494H65.3005Z" fill="#F3F3F3"/>
<path d="M67.7655 43.4675C67.7655 42.3636 67.9962 41.4026 68.4576 40.5844C68.919 39.7532 69.5568 39.1104 70.371 38.6558C71.1988 38.2013 72.142 37.974 73.2005 37.974C74.5711 37.974 75.6974 38.2922 76.5795 38.9286C77.4752 39.5649 78.0655 40.4481 78.3505 41.5779H76.3556C76.1656 40.9286 75.7924 40.4156 75.236 40.039C74.6932 39.6623 74.0147 39.474 73.2005 39.474C72.142 39.474 71.287 39.8247 70.6356 40.526C69.9843 41.2143 69.6586 42.1948 69.6586 43.4675C69.6586 44.7532 69.9843 45.7468 70.6356 46.4481C71.287 47.1494 72.142 47.5 73.2005 47.5C74.0147 47.5 74.6932 47.3182 75.236 46.9545C75.7789 46.5909 76.1521 46.0714 76.3556 45.3961H78.3505C78.0519 46.487 77.4548 47.3636 76.5592 48.026C75.6635 48.6753 74.544 49 73.2005 49C72.142 49 71.1988 48.7727 70.371 48.3182C69.5568 47.8636 68.919 47.2208 68.4576 46.3896C67.9962 45.5584 67.7655 44.5844 67.7655 43.4675Z" fill="#F3F3F3"/>
<path d="M91 43.0779C91 43.4156 90.9796 43.7727 90.9389 44.1494H82.0231C82.091 45.2013 82.4641 46.026 83.1427 46.6234C83.8348 47.2078 84.6694 47.5 85.6464 47.5C86.4471 47.5 87.112 47.3247 87.6413 46.974C88.1841 46.6104 88.5641 46.1299 88.7812 45.5325H90.7761C90.4775 46.5584 89.8804 47.3961 88.9848 48.0455C88.0891 48.6818 86.9763 49 85.6464 49C84.5879 49 83.638 48.7727 82.7966 48.3182C81.9688 47.8636 81.3174 47.2208 80.8425 46.3896C80.3675 45.5455 80.13 44.5714 80.13 43.4675C80.13 42.3636 80.3607 41.3961 80.8221 40.5649C81.2835 39.7338 81.9281 39.0974 82.7559 38.6558C83.5973 38.2013 84.5608 37.974 85.6464 37.974C86.7049 37.974 87.6413 38.1948 88.4555 38.6364C89.2698 39.0779 89.894 39.6883 90.3283 40.4675C90.7761 41.2338 91 42.1039 91 43.0779ZM89.0866 42.7078C89.0866 42.0325 88.9305 41.4545 88.6184 40.974C88.3063 40.4805 87.8788 40.1104 87.336 39.8636C86.8067 39.6039 86.2164 39.474 85.565 39.474C84.6286 39.474 83.828 39.7597 83.163 40.3312C82.5116 40.9026 82.1385 41.6948 82.0435 42.7078H89.0866Z" fill="#F3F3F3"/>
<path d="M52.5292 23.5147C52.942 22.8997 53.4579 22.4184 54.0771 22.0709C54.6963 21.7099 55.3842 21.5294 56.141 21.5294V25.1591H55.1709C54.2904 25.1591 53.6299 25.3463 53.1896 25.7206C52.7493 26.0816 52.5292 26.7233 52.5292 27.6457V32.8396H49V21.6497H52.5292V23.5147Z" fill="#FD504C"/>
<path d="M68.6837 27.0642C68.6837 27.385 68.6631 27.7193 68.6218 28.0668H60.6347C60.6897 28.762 60.9168 29.2968 61.3158 29.6711C61.7285 30.0321 62.2307 30.2126 62.8224 30.2126C63.703 30.2126 64.3152 29.8516 64.6592 29.1297H68.4154C68.2228 29.865 67.872 30.5267 67.3629 31.115C66.8675 31.7032 66.2415 32.1644 65.4848 32.4987C64.728 32.8329 63.8818 33 62.9462 33C61.818 33 60.8136 32.766 59.933 32.2981C59.0524 31.8302 58.3644 31.1618 57.8691 30.2928C57.3738 29.4238 57.1261 28.4078 57.1261 27.2447C57.1261 26.0816 57.3669 25.0655 57.8485 24.1965C58.3438 23.3275 59.0318 22.6591 59.9123 22.1912C60.7929 21.7233 61.8042 21.4893 62.9462 21.4893C64.0607 21.4893 65.0513 21.7166 65.9182 22.1711C66.785 22.6257 67.4592 23.2741 67.9408 24.1163C68.4361 24.9586 68.6837 25.9412 68.6837 27.0642ZM65.072 26.1618C65.072 25.5735 64.8656 25.1056 64.4528 24.758C64.0401 24.4104 63.5241 24.2366 62.9049 24.2366C62.3133 24.2366 61.8111 24.4037 61.3983 24.738C60.9993 25.0722 60.7516 25.5468 60.6553 26.1618H65.072Z" fill="#FD504C"/>
<path d="M69.8439 27.2246C69.8439 26.0749 70.064 25.0655 70.5043 24.1965C70.9583 23.3275 71.5706 22.6591 72.3411 22.1912C73.1116 21.7233 73.9716 21.4893 74.921 21.4893C75.6777 21.4893 76.3657 21.643 76.9848 21.9505C77.6177 22.258 78.1131 22.6725 78.4708 23.1939V18H82V32.8396H78.4708V31.2353C78.1406 31.7701 77.6659 32.1979 77.0467 32.5187C76.4413 32.8396 75.7327 33 74.921 33C73.9716 33 73.1116 32.766 72.3411 32.2981C71.5706 31.8168 70.9583 31.1417 70.5043 30.2727C70.064 29.3904 69.8439 28.3743 69.8439 27.2246ZM78.4708 27.2447C78.4708 26.389 78.2231 25.7139 77.7278 25.2193C77.2462 24.7246 76.6546 24.4773 75.9529 24.4773C75.2512 24.4773 74.6527 24.7246 74.1573 25.2193C73.6758 25.7005 73.435 26.369 73.435 27.2246C73.435 28.0802 73.6758 28.762 74.1573 29.2701C74.6527 29.7647 75.2512 30.012 75.9529 30.012C76.6546 30.012 77.2462 29.7647 77.7278 29.2701C78.2231 28.7754 78.4708 28.1003 78.4708 27.2447Z" fill="#FD504C"/>
</svg>
